<?xml version="1.0" encoding="UTF-8"?><svg width="60" height="17" viewBox="0 0 15 17" fill="none" xmlns="http://www.w3.org/2000/svg">
<path d="M13.3308 8.70673V3.88889C13.3308 3.76625 13.2821 3.64864 13.1954 3.56192L10.7688 1.13544C10.6821 1.04871 10.5645 1 10.4419 1H1.4624C1.20703 1 1 1.20703 1 1.4624V15.9511C1 16.2065 1.20703 16.4135 1.4624 16.4135H6.39471" stroke="#696969" stroke-linecap="round" stroke-linejoin="round"/>
<path d="M4.08252 7.1657H10.2479M4.08252 4.08301H7.16521M4.08252 10.2484H6.39454" stroke="#696969" stroke-linecap="round" stroke-linejoin="round"/>
<path d="M11.7541 12.5135L12.5248 11.7429C12.8622 11.4054 13.4094 11.4054 13.7469 11.7429C14.0844 12.0803 14.0844 12.6275 13.7469 12.965L12.9762 13.7357M11.7541 12.5135L9.44893 14.8187C9.33341 14.9342 9.25758 15.0835 9.23245 15.2449L9.04541 16.4443L10.2448 16.2574C10.4063 16.2322 10.5555 16.1563 10.671 16.0408L12.9762 13.7357M11.7541 12.5135L12.9762 13.7357" stroke="#696969" stroke-linecap="round" stroke-linejoin="round"/>
<path d="M10.248 1V3.62029C10.248 3.87566 10.455 4.08269 10.7105 4.08269H13.3307" stroke="#696969" stroke-linecap="round" stroke-linejoin="round"/>
</svg>
