<?xml version="1.0" encoding="UTF-8"?><svg width="11" height="6" viewBox="0 0 11 6" fill="none" xmlns="http://www.w3.org/2000/svg">
<path fill-rule="evenodd" clip-rule="evenodd" d="M0.337613 0.119351C0.37535 0.0815183 0.42018 0.0515022 0.469536 0.0310219C0.518891 0.0105417 0.571802 0 0.625238 0C0.678674 0 0.731585 0.0105417 0.78094 0.0310219C0.830296 0.0515022 0.875126 0.0815183 0.912863 0.119351L5.50024 4.70754L10.0876 0.119351C10.1254 0.0815795 10.1702 0.0516175 10.2196 0.0311757C10.2689 0.010734 10.3218 0.000212699 10.3752 0.000212699C10.4287 0.000212699 10.4815 0.010734 10.5309 0.0311757C10.5802 0.0516175 10.6251 0.0815795 10.6629 0.119351C10.7006 0.157122 10.7306 0.201964 10.751 0.251314C10.7715 0.300665 10.782 0.353559 10.782 0.406976C10.782 0.460393 10.7715 0.513287 10.751 0.562638C10.7306 0.611988 10.7006 0.65683 10.6629 0.694601L5.78786 5.5696C5.75013 5.60743 5.7053 5.63745 5.65594 5.65793C5.60658 5.67841 5.55367 5.68895 5.50024 5.68895C5.4468 5.68895 5.39389 5.67841 5.34454 5.65793C5.29518 5.63745 5.25035 5.60743 5.21261 5.5696L0.337613 0.694601C0.29978 0.656864 0.269764 0.612034 0.249284 0.562678C0.228804 0.513323 0.218262 0.460412 0.218262 0.406976C0.218262 0.35354 0.228804 0.300629 0.249284 0.251274C0.269764 0.201918 0.29978 0.157088 0.337613 0.119351Z" fill="black" fill-opacity="0.4"/>
</svg>